<?xml version="1.0" encoding="UTF-8" standalone="no"?>
<svg enable-background="new 0 0 500 540" height="323.569" viewBox="0 0 290.00043 323.569" width="290.00043" xmlns="http://www.w3.org/2000/svg">
   <g transform="matrix(.60680717 0 0 .60680717 -6.7015784 -2.0534355)">
      <path clip-rule="evenodd" d="m488.956 296.863c0 132.407-106.984 239.753-238.959 239.753-131.971 0-238.953-107.346-238.953-239.753 0-132.417 106.982-239.763 238.953-239.763 131.975.001 238.959 107.346 238.959 239.763" fill="#fff" fill-rule="evenodd"/>
      <path clip-rule="evenodd" d="m304.527 98.802c0 27.457-20.109 49.714-44.905 49.714-24.801 0-44.906-22.257-44.906-49.714 0-27.459 20.105-49.716 44.906-49.716 24.796 0 44.905 22.257 44.905 49.716" fill="#fff" fill-rule="evenodd"/>
      <path clip-rule="evenodd" d="m349.433 106.418c0 56.905-44.874 103.044-100.232 103.044-55.358 0-100.232-46.139-100.232-103.044 0-56.908 44.874-103.034 100.232-103.034 55.358 0 100.232 46.126 100.232 103.034" fill="#fff" fill-rule="evenodd"/>
      <path d="m481.738 295.256c0 127.543-103.392 230.942-230.941 230.942-127.54 0-230.932-103.399-230.932-230.942 0-127.536 103.392-230.935 230.932-230.935 127.55 0 230.941 103.399 230.941 230.935" fill="#fff"/>
      <path d="m28.699 359.479c22.702 43.768 34.465 63.01 53.385 94.321 42.084 44.987 101.981 73.111 168.438 73.111 66.46 0 126.356-28.116 168.436-73.099 18.944-30.792 33.911-59.118 53.254-93.847 5.795-20.21 8.894-41.56 8.894-63.636 0-127.347-103.233-230.59-230.583-230.59-127.344 0-230.581 103.243-230.581 230.59-.001 21.895 3.054 43.08 8.757 63.15" fill="#0071bb"/>
      <path clip-rule="evenodd" d="m64.385 432.414c5.446 7.434 11.323 14.529 17.599 21.248h337.081c6.282-6.719 12.158-13.814 17.604-21.248z" fill="#fff" fill-rule="evenodd"/>
      <path clip-rule="evenodd" d="m463.306 385.308c3.416-8.16 6.377-16.561 8.856-25.163l-193.108-292.642c-8.717-1.081-17.598-1.664-26.596-1.736z" fill="#fff" fill-rule="evenodd"/>
      <path clip-rule="evenodd" d="m245.927 65.802c-9.043.174-17.965.883-26.726 2.065l-190.445 291.809c2.471 8.653 5.437 17.104 8.862 25.303z" fill="#fff" fill-rule="evenodd"/>
      <path clip-rule="evenodd" d="m250.525 65.744c-1.534 0-3.068.025-4.599.058l-208.315 319.177c.87 2.074 1.75 4.144 2.677 6.187l208.925-320.123-2.359-3.568 4.696-.013-2.337 3.581 211.423 320.4c.918-2.031 1.811-4.074 2.67-6.136l-210.848-319.537c-.648-.006-1.284-.026-1.933-.026" fill="#0071bb" fill-rule="evenodd"/>
      <path clip-rule="evenodd" d="m440.653 426.804c7.648-11.121 14.354-22.949 19.977-35.36l-211.42-320.4-208.926 320.121c5.655 12.519 12.411 24.429 20.112 35.639z" fill="#fff" fill-rule="evenodd"/>
      <path clip-rule="evenodd" d="m60.4 426.804c1.303 1.885 2.628 3.757 3.981 5.617h372.281c1.366-1.86 2.693-3.732 3.997-5.617z" fill="#0071bb" fill-rule="evenodd"/>
      <polygon fill="#fff" points="193.791 469.235 205.854 469.235 205.854 506.216 198.643 506.216 198.643 475.517 193.791 475.517"/>
      <path d="m222.373 503.906l7.598-10.734-.096-.107c-.838.348-1.866.544-2.896.544-6.763 0-10.979-5.89-10.979-12.267 0-7.646 5.44-13.087 13.037-13.087 7.31 0 12.948 5.149 12.948 12.607 0 4.409-2.109 8.772-4.513 12.359l-9.809 14.55zm.882-22.854c0 3.34 2.208 6.913 5.836 6.913 3.628 0 5.88-3.573 5.88-6.913 0-3.333-2.252-6.907-5.88-6.907-3.628 0-5.836 3.574-5.836 6.907" fill="#fff"/>
      <polygon fill="#fff" points="250.127 469.235 276.555 469.235 256.307 507.188 250.374 503.812 265.619 475.517 250.127 475.517"/>
      <path d="m282.457 478.901c.633-6.376 4.706-10.646 11.329-10.646 6.37 0 10.634 4.074 10.634 10.444 0 2.846-1.025 6.034-3.53 7.704 3.384 1.468 4.757 5.636 4.757 9.021 0 7.249-5.237 11.765-12.297 11.765-6.774 0-11.879-5.047-12.265-11.663h7.255c.151 2.94 2.112 5.389 5.301 5.389 3.239 0 4.947-3.036 4.947-5.934 0-2.941-1.961-6.123-5.2-5.883l-1.315.101v-5.148h.784c3.087 0 4.706-2.018 4.706-5.11 0-2.442-1.519-4.7-4.213-4.7-2.555 0-3.929 2.403-4.022 4.662h-6.871z" fill="#fff"/>
      <polygon fill="#0071bb" points="308.727 220.349 308.727 367.659 331.455 367.659 331.455 321.47 341.285 314.904 374.621 367.659 401.985 367.659 359.516 302.701 377.821 290.448 365.031 271.662 331.455 294.131 331.455 220.349"/>
      <path d="m168.954 220.352l-96.861 147.314h27.352l23.263-35.918h46.247v35.918h22.73v-147.314zm-31.53 88.669l31.53-48.691v48.691z" fill="#0071bb"/>
      <polygon fill="#0071bb" points="228.506 308.995 272.514 308.995 272.514 367.666 295.248 367.666 295.248 208.659 272.514 208.659 272.514 286.262 228.506 286.262 228.506 208.659 205.777 208.659 205.777 367.666 228.506 367.666"/>
      <path d="m106.001 407.522l-2.985 7.648h-7.455l14.147-37.232h5.478l13.765 37.232h-7.553l-2.793-7.648zm6.107-18.951h-.095l-3.991 13.177h8.608z" fill="#0071bb"/>
      <polygon fill="#0071bb" points="162.618 409.016 162.618 415.171 145.536 415.171 145.536 378.893 152.611 378.893 152.611 409.016"/>
      <rect fill="#0071bb" height="36.278" width="7.0749998" x="180.909" y="378.89301"/>
      <polygon fill="#0071bb" points="230.615 415.897 211.516 390.546 211.424 390.546 211.424 415.177 204.349 415.177 204.349 377.933 209.446 377.933 228.55 403.285 228.648 403.285 228.648 378.905 235.72 378.905 235.72 415.897"/>
      <path d="m282.521 395.884v.911c0 10.247-5.25 19.343-16.504 19.343-10.579 0-17.269-8.943-17.269-18.95 0-10.349 6.879-19.249 17.705-19.249 6.162 0 11.551 3.118 14.334 8.66l-6.249 3.364c-1.449-3.276-4.529-5.775-8.281-5.775-6.824 0-10.196 6.978-10.196 13 0 6.009 3.409 12.688 10.248 12.688 4.421 0 8.128-3.846 8.267-8.217h-7.691v-5.775z" fill="#0071bb"/>
      <path d="m312.719 386.882c-1.342-1.827-3.074-2.979-5.428-2.979-2.264 0-4.434 1.732-4.434 4.086 0 6.11 14.391 3.556 14.391 15.738 0 7.262-4.529 12.41-11.937 12.41-5.004 0-8.66-2.896-11.158-7.071l4.573-4.479c.961 2.79 3.511 5.288 6.541 5.288 2.891 0 4.668-2.441 4.668-5.238 0-3.756-3.467-4.813-6.307-5.92-4.662-1.923-8.078-4.283-8.078-9.905 0-6.017 4.467-10.874 10.59-10.874 3.213 0 7.691 1.587 9.905 4.035z" fill="#0071bb"/>
      <path d="m350.646 370.095c0 2.693-2.163 4.857-4.813 4.857-2.637 0-4.814-2.164-4.814-4.857 0-2.645 2.178-4.814 4.814-4.814 2.65-.001 4.813 2.169 4.813 4.814m-6.787 0c0 1.106.866 2.018 1.974 2.018 1.108 0 1.979-.911 1.979-2.018 0-1.057-.872-1.968-1.979-1.968-1.107 0-1.974.911-1.974 1.968m-4.282 37.427l-2.979 7.648h-7.458l14.145-37.232h5.484l13.764 37.232h-7.559l-2.783-7.648zm6.111-18.951h-.088l-3.998 13.177h8.615z" fill="#0071bb"/>
      <path d="m392.991 386.882c-1.348-1.827-3.075-2.979-5.435-2.979-2.259 0-4.435 1.732-4.435 4.086 0 6.11 14.385 3.556 14.385 15.738 0 7.262-4.516 12.41-11.93 12.41-4.997 0-8.653-2.896-11.159-7.071l4.573-4.479c.956 2.79 3.512 5.288 6.548 5.288 2.878 0 4.655-2.441 4.655-5.238 0-3.756-3.467-4.813-6.3-5.92-4.662-1.923-8.072-4.283-8.072-9.905 0-6.017 4.466-10.874 10.577-10.874 3.226 0 7.698 1.587 9.912 4.035z" fill="#0071bb"/>
      <path clip-rule="evenodd" d="m230.755 21.757l3.69 5.886c-29.815 11.512-43.845 30.893-50.392 47.843 2.597-.778 5.199-1.516 7.831-2.208 7.053-15.165 20.482-31.625 46.091-40.692l7.699 13.116c0 0-14.183 7.6-25.575 22.045 3.265-.437 6.551-.784 9.853-1.076-.259-.031-.421-.053-.421-.053 6.972-9.236 20.6-16.023 20.6-16.023 17.766 4.229 32.529 11.437 44.473 19.372 5.478 1.063 10.88 2.318 16.212 3.758-7.027-5.99-25.429-18.016-25.429-18.016-2.708-13.382-9.558-28.234-11.519-32.314 10.387 3.207 19.95 8.388 28.218 15.138 8.445 15.061 9.369 32.422 9.464 35.395 1.828.497 3.649 1.016 5.452 1.56.267-10.693-3.813-22.491-6.521-29.082 8.66 9.305 15.231 20.608 18.945 33.196 3.309 1.202 6.585 2.492 9.812 3.84-9.521-43.302-49.214-74.607-94.933-72.172-42.765 2.28-77.156 33.352-85.404 73.415 3.22-1.398 6.486-2.72 9.782-3.97 8.193-29.175 31.88-52.164 62.072-58.958m14.005-1.94c7.397-.392 14.608.19 21.542 1.636 4.77 9.668 12.417 31.814 12.417 31.814-6.711-3.375-28.52-10.137-28.52-10.137l-12.623-22.617c2.363-.325 4.761-.562 7.184-.696" fill="#0071bb" fill-rule="evenodd"/>
      <path clip-rule="evenodd" d="m316.995 75.486c4.193 1.259 8.337 2.625 12.436 4.114-3.72-12.591-10.298-23.889-18.951-33.196 2.708 6.594 6.78 18.389 6.515 29.082" fill="#fff" fill-rule="evenodd"/>
      <path clip-rule="evenodd" d="m273.867 23.395c1.961 4.077 8.811 18.936 11.512 32.317 0 0 18.408 12.022 25.441 18.013.241.066.481.13.729.196-.095-2.967-1.019-20.328-9.464-35.386-8.268-6.75-17.825-11.933-28.218-15.14" fill="#fff" fill-rule="evenodd"/>
      <path d="m278.725 53.271c0 0-7.659-22.146-12.423-31.817-6.927-1.445-14.15-2.027-21.542-1.633-2.43.131-4.817.364-7.184.693l12.627 22.62c0 0 21.805 6.762 28.522 10.137" fill="#fff"/>
      <path clip-rule="evenodd" d="m234.448 27.646l-3.69-5.893c-30.198 6.794-53.882 29.787-62.079 58.955 5.044-1.917 10.168-3.659 15.374-5.219 6.55-16.959 20.58-36.341 50.395-47.843" fill="#fff" fill-rule="evenodd"/>
      <path clip-rule="evenodd" d="m245.674 45.702l-7.695-13.116c-25.612 9.067-39.042 25.527-46.095 40.692 9.191-2.41 18.61-4.27 28.215-5.531 11.396-14.445 25.575-22.045 25.575-22.045" fill="#fff" fill-rule="evenodd"/>
      <path clip-rule="evenodd" d="m229.53 66.618c0 0 .162.019.421.05 6.781-.601 13.635-.927 20.574-.927 15.08 0 29.806 1.465 44.077 4.232-11.943-7.942-26.707-15.15-44.473-19.376.001.001-13.627 6.789-20.599 16.021" fill="#fff" fill-rule="evenodd"/>
      <path d="m249.21 201.536c54.229 0 98.192-43.963 98.192-98.192 0-5.804-.532-11.478-1.5-17.003-29.072-13.227-61.357-20.597-95.377-20.597-35.139 0-68.44 7.876-98.25 21.931-.815 5.105-1.255 10.34-1.255 15.669.001 54.229 43.959 98.192 98.19 98.192" fill="#0071bb"/>
      <path clip-rule="evenodd" d="m157.135 108.253c2.706 50.854 46.132 89.88 96.98 87.173 50.854-2.714 89.878-46.133 87.17-96.987-.267-5.137-.975-10.137-2.049-15.001-3.233-1.348-6.503-2.629-9.806-3.834 1.657 5.652 2.759 11.561 3.201 17.671-7.598-11.02-15.758-19.454-15.758-19.454.07-.769.108-1.547.121-2.331-1.81-.544-3.618-1.069-5.446-1.568.006.294.019.448.019.448-.24-.202-.494-.42-.747-.642-5.332-1.445-10.74-2.695-16.218-3.758 22.069 14.673 34.474 31.868 38.162 37.479-.386 8.129-1.955 15.979-4.535 23.377-48.125-56.501-93.613-63.57-98.275-64.158-3.305.291-6.594.648-9.853 1.075-8.362 10.596-15.234 24.866-13.894 42.556 0 0-.401 18.68 5.718 28.611l-15.364 9.216c0 0-12.123-17.547-12.437-40.845 0 0-.563-16.104 7.762-34-2.631.687-5.24 1.424-7.831 2.208-6.996 18.123-5.437 33.481-5.437 33.481 2.306 30.192 12.954 41.755 12.954 41.755l-7.758 4.779c-10.514-13.154-17.165-29.601-18.129-47.704-.506-9.4.582-18.509 2.992-27.09-3.299 1.249-6.557 2.578-9.783 3.976-1.557 7.579-2.193 15.476-1.759 23.567m85.838 78.513c-10.021-.733-19.581-3.251-28.357-7.249 10.092-4.301 33.357-20.605 33.357-20.605 6.712 3.375 16.603 14.037 16.603 14.037-9.25 7.644-18.649 12.409-21.603 13.817m11.506.05c4.827-2.843 13.6-9.391 13.6-9.391 2.563 2.297 4.359 4.896 5.105 6.066-5.972 1.785-12.228 2.918-18.705 3.325m-29.079-114.616c53.768 8.186 93.606 56.598 100.261 65.135-4.22 9.463-10.153 18.021-17.421 25.265-31.451-51.374-94.771-64.81-94.771-64.81.75-12.17 11.931-25.59 11.931-25.59m-13.448 32.197c63.679 17.73 87.147 55.216 91.316 62.775-7.142 6.06-15.328 10.952-24.29 14.358-22.551-35.392-62.522-45.193-62.522-45.193-6.254-16.692-4.504-31.94-4.504-31.94m4.387 38.476c13.732 3.934 25.83 12.145 25.83 12.145-14.002 11.304-30.306 19.188-34.31 21.045-7.448-4.24-14.198-9.604-20.002-15.867z" fill="#fff" fill-rule="evenodd"/>
      <path clip-rule="evenodd" d="m316.874 77.82c0 0 8.16 8.432 15.758 19.451-.442-6.107-1.544-12.016-3.201-17.671-4.086-1.489-8.235-2.85-12.436-4.111-.013.782-.051 1.56-.121 2.331" fill="#0071bb" fill-rule="evenodd"/>
      <path clip-rule="evenodd" d="m165.684 107.797c.964 18.104 7.618 34.551 18.132 47.715l7.758-4.789c0 0-10.643-11.554-12.954-41.746 0 0-1.563-15.357 5.434-33.487-5.199 1.56-10.33 3.309-15.378 5.219-2.407 8.583-3.492 17.698-2.992 27.088" fill="#0071bb" fill-rule="evenodd"/>
      <path clip-rule="evenodd" d="m184.125 107.281c.313 23.301 12.439 40.848 12.439 40.848l15.361-9.219c-6.119-9.929-5.718-28.611-5.718-28.611-1.341-17.689 5.531-31.956 13.888-42.556-9.599 1.269-19.018 3.122-28.209 5.532-8.323 17.905-7.761 34.006-7.761 34.006" fill="#0071bb" fill-rule="evenodd"/>
      <path clip-rule="evenodd" d="m229.951 66.668c4.665.588 50.165 7.657 98.284 64.158 2.574-7.396 4.138-15.245 4.522-23.377-3.682-5.614-16.086-22.807-38.155-37.476-14.271-2.768-28.997-4.232-44.077-4.232-6.939 0-13.793.326-20.574.927" fill="#0071bb" fill-rule="evenodd"/>
      <path clip-rule="evenodd" d="m308.24 162.6c7.268-7.246 13.201-15.802 17.408-25.262-6.642-8.536-46.48-56.955-100.248-65.135 0 0-11.182 13.42-11.931 25.584.001 0 63.32 13.442 94.771 64.813" fill="#0071bb" fill-rule="evenodd"/>
      <path clip-rule="evenodd" d="m278.979 181.531c8.956-3.406 17.148-8.296 24.302-14.365-4.174-7.553-27.649-45.045-91.322-62.766 0 0-1.756 15.248 4.494 31.938-.001 0 39.975 9.802 62.526 45.193" fill="#0071bb" fill-rule="evenodd"/>
      <path clip-rule="evenodd" d="m268.085 177.426c0 0-8.773 6.551-13.606 9.394 6.472-.407 12.733-1.543 18.705-3.323-.746-1.172-2.543-3.771-5.099-6.071" fill="#0071bb" fill-rule="evenodd"/>
      <path clip-rule="evenodd" d="m247.973 158.911c0 0-23.266 16.305-33.357 20.603 8.776 3.998 18.337 6.519 28.357 7.255 2.954-1.41 12.354-6.179 21.603-13.82-.001-.001-9.891-10.663-16.603-14.038" fill="#0071bb" fill-rule="evenodd"/>
      <path d="m207.859 176.066c4.004-1.86 20.308-9.748 34.313-21.045 0 0-12.101-8.215-25.833-12.146l-28.487 17.313c5.809 6.273 12.559 11.627 20.007 15.878" fill="#0071bb"/>
   </g>
</svg>
